<?xml version="1.0" encoding="UTF-8" standalone="no"?>
<!-- Created with Inkscape (http://www.inkscape.org/) -->

<svg
   width="100"
   height="100"
   viewBox="0 0 100 100"
   version="1.1"
   id="svg1419"
   inkscape:version="1.2 (dc2aedaf03, 2022-05-15)"
   sodipodi:docname="Anaconda.svg"
   xmlns:inkscape="http://www.inkscape.org/namespaces/inkscape"
   xmlns:sodipodi="http://sodipodi.sourceforge.net/DTD/sodipodi-0.dtd"
   xmlns="http://www.w3.org/2000/svg"
   xmlns:svg="http://www.w3.org/2000/svg">
  <sodipodi:namedview
     id="namedview1421"
     pagecolor="#ffffff"
     bordercolor="#000000"
     borderopacity="0.25"
     inkscape:showpageshadow="2"
     inkscape:pageopacity="0.0"
     inkscape:pagecheckerboard="0"
     inkscape:deskcolor="#d1d1d1"
     inkscape:document-units="mm"
     showgrid="false"
     inkscape:zoom="2.0888418"
     inkscape:cx="187.42443"
     inkscape:cy="157.50355"
     inkscape:window-width="1920"
     inkscape:window-height="1009"
     inkscape:window-x="-8"
     inkscape:window-y="-8"
     inkscape:window-maximized="1"
     inkscape:current-layer="layer1" />
  <defs
     id="defs1416" />
  <g
     inkscape:label="Calque 1"
     inkscape:groupmode="layer"
     id="layer1">
    <path
       class="st0"
       d="m 18.587143,76.621803 v -0.401618 c 0.0999,-2.912311 0.299777,-5.724078 0.699503,-8.636283 V 67.282636 H 18.986869 C 16.388647,66.177932 13.79046,64.972862 11.292187,63.566979 L 10.992392,63.36617 10.792546,63.667436 C 9.1936399,66.98137 7.7945972,70.496107 6.6953668,74.010869 v 0.301266 h 0.3997263 c 3.6974529,1.004242 7.3948879,1.70715 11.1922549,2.108859 z m 7.794596,-50.712951 c -2.198478,0 -4.297024,0.20081 -6.495502,0.401619 0.299794,2.209317 0.699521,4.318175 1.099247,6.52742 1.498957,-2.610953 3.297709,-4.920639 5.396255,-6.929039 z M 18.587143,79.232843 V 78.93149 H 18.287348 C 15.089571,78.63031 11.891776,78.128144 8.6939815,77.324797 l -0.7994353,-0.200828 0.4996407,0.702903 c 2.8980001,4.318195 6.3955721,8.234642 10.3928191,11.448132 l 0.699504,0.50208 V 88.973738 C 18.986869,85.760247 18.787006,82.446319 18.587143,79.232843 Z M 34.076405,2.7113233 c -3.797367,1.3055123 -7.494802,3.1131203 -10.89246,5.3224362 2.498273,0.4016199 5.096478,1.0041558 7.49482,1.8075902 1.09923,-2.4101256 2.198478,-4.8202516 3.39764,-7.1300264 z M 50.265189,0 c -1.898682,0 -3.79735,0.10038719 -5.696051,0.30126798 2.598205,1.80751932 5.196411,3.81602582 7.494805,6.02525352 L 54.062572,8.1341113 52.16389,10.04216 c -1.598908,1.60671 -3.197778,3.313948 -4.696752,5.02108 l -0.699521,0.903803 c 1.199163,-0.100387 2.398341,-0.20081 3.597523,-0.20081 10.592646,0.100388 20.485806,5.22189 26.781447,13.657358 6.295642,8.53582 8.294257,19.481785 5.496186,29.724847 -2.89798,10.242985 -10.292871,18.477626 -20.086079,22.394092 -9.793213,3.916466 -20.885538,3.012662 -29.979246,-2.410145 -2.498256,0.301271 -5.096478,0.401637 -7.694665,0.401637 h -3.597521 c 0.0999,4.016928 0.499658,8.033746 1.099248,11.950212 13.090938,8.837176 29.5795,10.946056 44.469206,5.623615 C 81.743408,91.7855 93.235457,79.734923 97.832258,64.571245 102.42908,49.407543 99.631012,32.938332 90.237525,20.184778 80.844024,7.5315937 66.054265,0 50.265189,0 Z m 0,0 M 43.669753,11.950137 C 44.66907,10.745065 45.668386,9.6404516 46.667685,8.5358374 44.369293,6.5274196 41.970951,4.6193717 39.372746,3.0125912 c -1.598888,2.7113945 -2.997931,5.5232462 -4.097162,8.3350108 2.298411,0.803434 4.496889,1.70722 6.695367,2.711394 0.399709,-0.702888 1.099231,-1.405882 1.698802,-2.108859 z m -33.7765917,28.419419 0.1998637,0.301268 0.299794,-0.200828 c 2.298393,-1.60678 4.696752,-3.213561 7.195007,-4.519002 l 0.199864,-0.20081 V 35.549286 C 16.988237,32.637063 16.488596,29.72486 16.08887,26.812638 V 26.41093 H 15.689143 C 11.991708,27.113906 8.3941869,28.118079 4.8966151,29.423591 H 4.5968199 v 0.301268 c 1.3990255,3.715568 3.1977773,7.230309 5.2963414,10.644697 z m -0.5995897,4.820252 -0.299795,0.200828 C 6.29564,47.599934 3.7973845,50.01008 1.3990253,52.621033 l -0.1998457,0.301252 0.2997949,0.200828 c 2.5981872,2.309687 5.3962552,4.318175 8.2942551,6.226134 l 0.2997954,0.200895 0.199845,-0.301247 c 1.299111,-2.410144 2.798069,-4.619441 4.396975,-6.82869 V 52.21931 L 14.489981,52.018496 C 12.691212,50.01008 11.092323,47.800762 9.4934345,45.591445 Z M 28.780081,76.822703 h 0.899385 l -0.699522,-0.502167 c -2.698136,-2.209229 -4.996546,-4.820255 -6.795298,-7.632017 l -0.499658,-0.200828 v 0.502095 c -0.299795,2.510495 -0.499658,5.121521 -0.599572,7.632017 v 0.301266 h 3.897281 c 1.099248,-0.100385 2.498273,-0.100385 3.797384,-0.100385 z M 27.181193,21.490219 c 0.49964,-2.510513 1.199162,-4.920639 1.998615,-7.330766 -3.097863,-0.903804 -6.29564,-1.60678 -9.493435,-2.008417 -0.299795,3.213472 -0.299795,6.527401 0,9.740891 2.29841,-0.200827 4.896597,-0.301268 7.49482,-0.401708 z m 4.796665,-0.200827 c 2.198479,-1.405882 4.496888,-2.510585 6.89523,-3.313931 -1.798752,-0.803346 -3.497572,-1.606692 -5.396255,-2.309686 -0.59959,1.908048 -1.099248,3.715568 -1.498975,5.623617 z M 8.7939132,61.960287 8.4941186,61.759391 C 5.8959137,60.15268 3.4975719,58.345092 1.099248,56.437042 l -0.69952146,-0.50208 v 0.803346 C 0.99929873,61.558563 2.3983416,66.278394 4.297025,70.596565 l 0.2997949,0.803346 0.2997952,-0.803346 c 0.9992986,-2.811849 2.198478,-5.623703 3.4975718,-8.335099 z M 15.189485,14.460722 c -2.997914,3.012661 -5.5961361,6.326592 -7.6946651,9.94179 2.5982051,-0.803435 5.1963921,-1.405971 7.7945971,-1.807609 -0.199846,-2.711393 -0.199846,-5.422788 -0.0999,-8.134181 z m 1.498974,35.147634 v -0.903789 c 0.0999,-3.012663 0.599573,-6.025325 1.498957,-8.937547 l 0.299795,-0.803364 -0.699521,0.401637 c -1.898684,1.104703 -3.897298,2.410144 -5.696068,3.715656 l -0.299777,0.200811 0.199863,0.301267 c 1.299093,1.807608 2.698137,3.615198 4.097162,5.322349 z m 0.299778,5.121536 v -0.903803 l -0.499641,0.702903 c -1.399025,1.90805 -2.698136,3.916466 -3.797384,6.025324 l -0.199864,0.301272 0.299795,0.200895 c 2.098547,1.204983 4.297025,2.209249 6.495503,3.213491 l 0.799453,0.401622 -0.399726,-0.803346 C 18.387279,60.956045 17.487895,57.943383 16.988237,54.729892 Z M 7.2949565,42.779682 7.4948199,42.578854 7.2949565,42.277586 C 5.6960681,39.76702 4.297025,37.156066 2.9979314,34.444671 L 2.6981365,33.641308 2.3983416,34.444671 C 0.89938472,38.963656 0.09993164,43.683486 0,48.503739 v 0.903804 L 0.59958983,48.80501 C 2.7980681,46.696148 4.9965463,44.687641 7.2949565,42.779682 Z m 0,0"
       id="path696"
       style="fill:#44a833;stroke-width:1.00176" />
  </g>
</svg>
