<?xml version="1.0" encoding="UTF-8" standalone="no"?>
<!-- Created with Inkscape (http://www.inkscape.org/) -->

<svg
   width="96"
   height="125"
   viewBox="0 0 96 125"
   version="1.1"
   id="svg1419"
   inkscape:version="1.2 (dc2aedaf03, 2022-05-15)"
   sodipodi:docname="Jupyter.svg"
   xmlns:inkscape="http://www.inkscape.org/namespaces/inkscape"
   xmlns:sodipodi="http://sodipodi.sourceforge.net/DTD/sodipodi-0.dtd"
   xmlns="http://www.w3.org/2000/svg"
   xmlns:svg="http://www.w3.org/2000/svg">
  <sodipodi:namedview
     id="namedview1421"
     pagecolor="#ffffff"
     bordercolor="#000000"
     borderopacity="0.25"
     inkscape:showpageshadow="2"
     inkscape:pageopacity="0.0"
     inkscape:pagecheckerboard="0"
     inkscape:deskcolor="#d1d1d1"
     inkscape:document-units="mm"
     showgrid="false"
     inkscape:zoom="2.0888418"
     inkscape:cx="106.99709"
     inkscape:cy="170.9081"
     inkscape:window-width="1920"
     inkscape:window-height="1009"
     inkscape:window-x="-8"
     inkscape:window-y="-8"
     inkscape:window-maximized="1"
     inkscape:current-layer="layer1" />
  <defs
     id="defs1416" />
  <g
     inkscape:label="Calque 1"
     inkscape:groupmode="layer"
     id="layer1">
    <g
       transform="matrix(2.5027381,0,0,2.5027381,-4099.429,-5239.0079)"
       id="g166">
      <path
         id="use154"
         d="m 1675.194,2096.1541 c 0.025,0.588 -0.123,1.17 -0.425,1.672 -0.302,0.502 -0.746,0.904 -1.275,1.152 -0.529,0.248 -1.12,0.333 -1.695,0.243 a 2.94,2.94 0 0 1 -1.543,-0.748 2.98,2.98 0 0 1 -0.871,-1.486 c -0.138,-0.57 -0.105,-1.17 0.095,-1.724 a 2.97,2.97 0 0 1 1.028,-1.379 2.93,2.93 0 0 1 1.615,-0.571 c 0.78,-0.033 1.542,0.247 2.118,0.78 0.576,0.533 0.918,1.274 0.952,2.06 z"
         style="fill:#767677" />
      <g
         fill="#f37726"
         id="g160">
        <path
           id="use156"
           d="m 1658.005,2131.114 c -7.85,0 -14.705,-2.876 -18.265,-7.134 1.325,3.82 3.796,7.13 7.07,9.473 3.274,2.343 7.187,3.6 11.2,3.6 4.013,0 7.927,-1.258 11.2,-3.6 3.273,-2.342 5.743,-5.653 7.068,-9.473 -3.568,4.258 -10.423,7.134 -18.273,7.134 z" />
        <path
           id="use158"
           d="m 1658.003,2103.42 c 7.85,0 14.706,2.877 18.265,7.134 -1.325,-3.82 -3.796,-7.13 -7.07,-9.473 -3.274,-2.343 -7.186,-3.601 -11.198,-3.601 -4.012,0 -7.927,1.258 -11.2,3.6 -3.273,2.342 -5.745,5.653 -7.07,9.473 3.567,-4.248 10.423,-7.133 18.273,-7.133 z" />
      </g>
      <path
         id="use162"
         d="m 1647.228,2139.3931 a 3.77,3.77 0 0 1 -0.536,2.109 c -0.382,0.634 -0.94,1.14 -1.608,1.452 -0.668,0.312 -1.4,0.42 -2.137,0.306 -0.737,-0.114 -1.404,-0.442 -1.945,-0.944 -0.541,-0.502 -0.922,-1.153 -1.097,-1.874 a 3.78,3.78 0 0 1 0.122,-2.173 c 0.253,-0.696 0.705,-1.3 1.3,-1.74 0.595,-0.44 1.303,-0.686 2.037,-0.716 0.983,-0.04 1.94,0.314 2.666,0.985 a 3.76,3.76 0 0 1 1.198,2.596 z"
         style="fill:#989798" />
      <path
         id="use164"
         d="m 1640.635,2102.4561 c -0.43,0.02 -0.858,-0.092 -1.227,-0.318 -0.369,-0.226 -0.663,-0.558 -0.845,-0.951 -0.182,-0.393 -0.243,-0.835 -0.177,-1.265 0.066,-0.43 0.257,-0.832 0.549,-1.152 0.292,-0.32 0.672,-0.546 1.09,-0.65 0.418,-0.104 0.86,-0.078 1.265,0.072 0.405,0.15 0.757,0.417 1.01,0.77 a 2.21,2.21 0 0 1 -0.156,2.784 c -0.39,0.43 -0.934,0.684 -1.51,0.71 z"
         style="fill:#6f7070" />
    </g>
  </g>
</svg>
